<svg width="20" height="16" viewBox="0 0 20 16" fill="none" xmlns="http://www.w3.org/2000/svg">
<path d="M19.7061 8.70829L12.707 15.7073C12.512 15.9023 12.256 16.0003 12 16.0003C11.744 16.0003 11.488 15.9023 11.293 15.7073C10.902 15.3163 10.902 14.6842 11.293 14.2933L16.5859 9.00028H1C0.447 9.00028 0 8.55228 0 8.00028C0 7.44828 0.447 7.00028 1 7.00028H16.5859L11.293 1.70731C10.902 1.31631 10.902 0.68425 11.293 0.29325C11.684 -0.09775 12.316 -0.09775 12.707 0.29325L19.7061 7.29227C19.7991 7.38527 19.8721 7.4952 19.9231 7.6182C20.0241 7.8622 20.0241 8.13836 19.9231 8.38236C19.8721 8.50536 19.7991 8.61529 19.7061 8.70829Z" fill="white"/>
</svg>
